<?xml version="1.0" standalone="no"?>
<!DOCTYPE svg PUBLIC "-//W3C//DTD SVG 20010904//EN"
 "http://www.w3.org/TR/2001/REC-SVG-20010904/DTD/svg10.dtd">
<svg version="1.0" xmlns="http://www.w3.org/2000/svg"
 width="500.000000pt" height="500.000000pt" viewBox="0 0 500.000000 500.000000"
 preserveAspectRatio="xMidYMid meet">

<g transform="translate(0.000000,500.000000) scale(0.100000,-0.100000)"
fill="#000000" stroke="none">
<path d="M2290 4297 c0 -8 -14 -41 -30 -75 -44 -86 -122 -154 -261 -226 -149
-78 -238 -137 -321 -215 -158 -148 -271 -371 -284 -563 -4 -46 -17 -123 -31
-172 -21 -75 -25 -104 -21 -195 3 -94 7 -114 35 -174 37 -77 105 -168 158
-210 19 -15 35 -32 35 -37 0 -5 -17 -12 -37 -15 -124 -20 -281 -84 -353 -145
-34 -29 -34 -30 -12 -36 12 -4 22 -10 22 -13 0 -14 -104 -33 -207 -38 l-102
-6 14 -26 c18 -36 106 -117 149 -138 20 -9 36 -20 36 -24 0 -16 -109 -31 -197
-28 l-91 4 18 -25 c29 -40 81 -85 140 -122 52 -32 71 -41 144 -68 l30 -11 -60
-60 c-32 -33 -108 -102 -167 -152 -126 -107 -129 -116 -47 -165 101 -60 249
-88 406 -77 86 6 93 5 155 -25 35 -16 69 -30 74 -30 6 0 22 -19 37 -43 15 -23
59 -77 98 -120 62 -69 70 -82 70 -118 0 -53 19 -88 74 -133 43 -35 48 -36 83
-27 52 15 103 14 152 -4 37 -13 44 -12 87 6 33 15 61 20 102 17 l57 -3 18 37
c24 48 11 94 -39 138 l-35 30 131 0 131 0 56 -60 c31 -34 87 -79 126 -102 67
-40 70 -41 113 -30 48 13 134 14 174 3 18 -5 33 -2 52 12 29 21 67 26 110 14
33 -9 43 14 34 78 -13 81 -102 153 -215 171 -22 4 -41 10 -41 13 0 4 21 17 48
30 108 52 208 139 287 250 20 28 43 51 51 51 32 0 114 52 152 96 52 59 82 137
82 214 0 33 3 60 6 60 4 0 22 -10 41 -21 19 -12 37 -18 41 -14 4 4 9 46 10 93
4 86 1 100 -43 206 -6 14 -5 17 3 12 20 -12 14 21 -12 73 -32 63 -113 151
-176 191 -28 18 -50 34 -50 36 0 2 24 16 53 30 170 86 287 204 359 362 26 56
32 83 36 167 6 125 -10 194 -77 330 -27 55 -55 118 -62 140 -17 56 -65 149
-112 220 -53 78 -196 221 -272 272 -143 96 -319 165 -477 188 -27 3 -48 7 -48
8 0 1 9 26 20 55 18 46 27 122 16 122 -3 0 -56 -11 -120 -25 -119 -26 -192
-47 -238 -71 -26 -13 -27 -13 -33 19 -8 33 -42 107 -50 107 -3 0 -5 -6 -5 -13z
m348 -127 c-15 -4 -47 -24 -70 -43 -24 -18 -74 -53 -113 -75 -69 -41 -70 -42
-35 -42 l35 -1 -25 -14 c-23 -14 -21 -15 35 -10 33 3 80 2 105 -3 41 -7 34 -9
-67 -15 -62 -4 -132 -10 -156 -13 -42 -6 -45 -5 -51 21 -7 26 -7 27 -33 9 -23
-15 -22 -11 11 29 85 103 212 165 341 165 41 0 45 -1 23 -8z m-334 -42 c-13
-72 -27 -99 -76 -143 -44 -40 -157 -102 -244 -135 -37 -15 -25 -22 17 -10 18
6 75 10 125 10 114 0 198 -24 278 -80 31 -22 59 -40 62 -40 2 0 -3 14 -11 31
-9 17 -15 32 -13 34 30 26 212 90 303 106 l64 11 -27 23 c-15 12 -51 37 -79
55 -29 17 -53 34 -53 37 0 11 162 -9 231 -28 39 -11 99 -33 135 -49 69 -31
200 -118 230 -152 21 -24 11 -20 -51 22 -62 42 -157 88 -199 95 l-37 7 3 -33
c3 -32 5 -34 58 -44 48 -9 55 -13 52 -32 -3 -17 -17 -26 -71 -42 -75 -23 -157
-64 -245 -123 -53 -37 -57 -38 -51 -17 13 40 43 95 72 130 l28 34 -40 -29
c-22 -16 -53 -41 -70 -57 -29 -26 -35 -27 -204 -39 -96 -6 -179 -14 -183 -17
-5 -3 -17 2 -26 10 -22 20 -142 77 -162 77 -8 0 4 -9 28 -21 37 -18 138 -116
129 -125 -1 -2 -51 12 -109 31 -58 19 -139 39 -179 45 -119 18 -119 18 -119
43 0 16 9 26 30 34 22 8 30 18 30 35 0 13 5 29 12 36 19 19 1 14 -64 -19 -81
-41 -214 -175 -344 -344 -8 -11 -5 0 7 25 89 183 246 333 459 440 131 65 216
126 262 186 22 30 42 54 44 54 2 0 1 -15 -2 -32z m989 -482 c121 -58 222 -182
276 -338 10 -29 36 -91 57 -138 38 -83 39 -88 39 -200 0 -110 -1 -118 -34
-185 -25 -52 -56 -92 -120 -156 -143 -142 -301 -210 -620 -263 -55 -10 -30 3
50 25 106 29 219 70 219 80 0 4 -14 4 -30 -1 -39 -11 -185 -15 -231 -6 -43 9
-66 53 -43 83 13 17 13 17 14 1 0 -10 6 -18 14 -18 20 0 39 27 30 42 -4 7 -4
10 1 6 12 -11 35 11 35 33 0 13 -5 17 -17 13 -10 -3 -6 2 9 11 55 31 77 109
54 188 -18 61 -96 190 -186 307 l-62 80 7 56 c18 144 96 289 191 355 70 48
110 59 204 56 69 -2 96 -8 143 -31z m-1267 -96 c107 -47 209 -153 264 -276 47
-104 47 -106 -14 -235 -101 -213 -127 -327 -90 -405 20 -42 70 -74 118 -74 30
0 40 -5 56 -32 11 -18 25 -33 32 -33 31 -2 -14 -73 -51 -81 -14 -3 -39 -10
-56 -15 -16 -6 -65 -13 -107 -16 -119 -9 -102 -20 82 -53 45 -8 35 -8 -60 -5
-143 6 -224 23 -367 73 -203 72 -300 148 -369 287 -31 63 -38 89 -42 154 -2
43 1 102 8 132 6 30 22 105 35 166 37 177 107 296 223 375 100 69 235 84 338
38z m585 -263 c35 -30 89 -85 121 -123 75 -92 190 -275 183 -292 -3 -7 -5 -31
-5 -53 0 -21 -4 -39 -10 -39 -5 0 -10 9 -10 21 0 26 -29 129 -37 129 -3 0 -3
-9 0 -21 5 -17 1 -20 -20 -17 -22 2 -29 12 -43 53 -35 102 -119 244 -175 295
-35 31 -24 11 31 -57 52 -63 118 -197 139 -278 17 -66 20 -202 5 -225 -7 -10
-10 8 -10 59 0 101 -23 187 -80 306 -50 104 -119 197 -120 162 0 -11 8 -31 19
-45 28 -41 73 -133 67 -139 -11 -11 -64 19 -70 40 -13 49 -13 4 0 -113 7 -69
11 -143 9 -165 -4 -32 -3 -35 4 -15 9 25 9 25 9 -5 0 -16 -3 -41 -7 -55 -7
-22 -9 -18 -16 25 -4 28 -16 92 -26 144 -11 51 -19 104 -19 116 l0 23 -50 -18
-50 -18 7 26 c3 15 21 71 39 125 34 102 27 113 -19 29 -50 -92 -79 -215 -82
-347 -4 -149 -4 -149 -10 -143 -13 13 -21 150 -14 224 8 77 49 213 91 299 14
30 15 35 3 20 -38 -46 -93 -203 -110 -311 -6 -37 -10 -42 -35 -46 -16 -3 -31
0 -33 6 -8 22 -18 -105 -12 -137 6 -26 5 -30 -6 -20 -7 7 -15 39 -17 71 -8
109 92 346 205 490 32 39 64 72 73 72 9 0 45 -24 81 -53z m-196 -647 c10 -11
16 -20 13 -20 -3 0 -13 9 -23 20 -10 11 -16 20 -13 20 3 0 13 -9 23 -20z m240
-170 c-3 -5 -17 -10 -31 -10 -13 0 -24 5 -24 10 0 6 14 10 31 10 17 0 28 -4
24 -10z m-910 -146 c64 -15 187 -70 220 -99 11 -9 14 -13 6 -9 -12 6 -96 8
-234 5 -16 -1 -26 -5 -23 -10 5 -8 -77 5 -174 28 -25 6 -94 14 -154 18 -121 7
-121 12 -1 53 120 40 232 45 360 14z m1622 -59 c23 -20 52 -49 63 -65 l21 -30
-48 6 c-51 7 -93 23 -60 24 25 0 21 11 -18 49 -38 36 -50 80 -17 62 9 -5 36
-26 59 -46z m-198 -105 c76 -142 101 -357 61 -514 -51 -200 -203 -375 -404
-466 -158 -72 -361 -107 -556 -97 -101 6 -222 26 -236 39 -2 3 3 18 11 35 25
49 38 137 30 190 l-8 48 -8 -38 c-5 -21 -16 -52 -25 -68 -22 -44 -92 -118
-128 -136 l-31 -16 21 24 c42 48 35 49 -26 5 -34 -25 -67 -46 -72 -46 -5 0 3
17 19 38 55 69 45 67 -27 -7 l-72 -73 -45 43 c-60 59 -130 157 -148 209 -24
68 -18 69 22 3 20 -34 55 -84 79 -110 l42 -48 -10 53 c-17 95 23 227 92 306
18 20 56 49 84 63 107 54 242 167 288 241 11 18 31 38 44 42 13 5 24 15 24 23
0 34 259 164 463 232 175 59 292 83 398 84 l86 1 32 -60z m-1799 5 l25 -13
-29 -8 c-25 -6 -26 -8 -11 -17 15 -8 9 -14 -39 -36 -53 -26 -62 -27 -129 -18
-40 5 -92 17 -117 27 -51 20 -58 17 87 45 46 8 93 20 105 25 34 13 80 11 108
-5z m464 -4 c-18 -11 -72 -38 -120 -61 -49 -23 -97 -46 -106 -51 -10 -5 -50
-9 -90 -9 l-71 0 22 24 c59 63 200 115 316 115 l80 1 -31 -19z m1598 -58 c20
-21 46 -59 58 -85 19 -44 38 -138 28 -138 -10 0 -85 106 -93 130 -4 14 -21 51
-36 82 -16 32 -29 60 -29 63 0 11 36 -14 72 -52z m-1546 -63 c-35 -39 -46 -57
-26 -45 6 3 10 2 10 -4 0 -11 -67 -27 -76 -19 -6 7 105 108 118 108 6 0 -6
-18 -26 -40z m-646 -115 c23 -8 70 -15 104 -15 l61 -1 -34 -14 c-67 -30 -194
-41 -301 -26 -45 6 -87 14 -93 18 -9 6 142 43 209 52 6 0 31 -6 54 -14z m420
-39 c0 -7 -14 -30 -30 -51 -17 -21 -28 -40 -25 -43 2 -3 -7 -11 -22 -19 -14
-7 -28 -11 -31 -9 -6 6 33 62 72 104 34 36 36 37 36 18z m-517 -255 c-26 -32
-55 -61 -63 -64 -8 -3 -23 -8 -32 -12 -11 -4 -18 -3 -18 3 0 12 139 132 152
132 5 0 -13 -27 -39 -59z m889 -626 c78 -26 144 -61 162 -87 21 -29 20 -44 0
-27 -9 8 -43 13 -83 13 -66 1 -67 1 -63 -24 3 -22 2 -23 -10 -9 -15 18 -15 18
-118 22 l-75 3 0 45 c0 42 2 44 30 47 40 4 85 22 85 34 0 6 -11 8 -24 6 l-24
-5 21 29 21 28 12 -29 c9 -22 24 -33 66 -46z m945 2 c33 -17 69 -55 61 -63 -4
-3 -23 -1 -45 5 -60 17 -76 15 -63 -8 15 -29 12 -36 -7 -19 -25 21 -91 30
-136 17 -34 -9 -40 -8 -56 13 -18 21 -18 23 -2 34 9 7 33 15 53 19 26 5 35 11
31 21 -3 8 -11 14 -19 14 -8 0 -14 4 -14 9 0 11 159 -23 197 -42z m-270 -52
c20 -20 33 -39 29 -42 -4 -4 -26 12 -49 35 -23 23 -36 42 -28 42 7 0 29 -16
48 -35z"/>
<path d="M3094 3451 c-142 -65 -178 -291 -69 -435 51 -65 103 -90 190 -90 78
0 113 14 165 66 50 49 70 102 70 183 0 201 -192 350 -356 276z m72 -61 c60
-23 72 -84 25 -131 -35 -35 -77 -38 -115 -8 -48 38 -29 119 34 142 22 8 26 8
56 -3z m202 -110 c27 -47 32 -63 32 -120 0 -84 -27 -133 -94 -174 -54 -34
-121 -40 -187 -17 -38 12 -109 73 -109 93 0 7 9 2 20 -10 21 -23 41 -28 54
-14 4 4 35 7 69 8 41 0 74 6 97 19 31 17 33 20 13 23 -51 8 -56 72 -4 72 15 0
32 -5 38 -11 8 -8 13 -5 18 11 5 16 12 20 27 17 19 -5 20 -2 16 49 -3 36 -13
65 -28 86 -13 18 -17 29 -9 26 8 -2 29 -29 47 -58z m-298 -214 c0 -17 -14 -29
-23 -20 -8 8 3 34 14 34 5 0 9 -6 9 -14z"/>
<path d="M1785 3337 c-62 -30 -108 -77 -135 -140 -99 -223 79 -448 302 -383
165 48 228 279 120 439 -64 95 -188 132 -287 84z m200 -72 c52 -51 14 -139
-60 -139 -72 0 -113 91 -65 142 30 32 93 30 125 -3z m-273 -150 c-4 -60 -3
-65 14 -58 11 3 21 10 24 14 3 5 12 -13 20 -38 11 -39 14 -43 21 -26 10 26 45
39 64 23 23 -19 18 -55 -7 -67 -22 -10 -20 -11 19 -23 54 -17 105 -6 147 30
34 30 56 38 56 21 0 -6 -4 -13 -10 -16 -5 -3 -10 -12 -10 -18 1 -7 10 -1 20
12 26 30 26 6 0 -36 -31 -51 -92 -86 -160 -91 -139 -10 -229 73 -230 211 0 48
20 127 32 127 2 0 2 -29 0 -65z"/>
<path d="M2068 2373 c7 -3 16 -2 19 1 4 3 -2 6 -13 5 -11 0 -14 -3 -6 -6z"/>
<path d="M2531 3084 c0 -11 3 -14 6 -6 3 7 2 16 -1 19 -3 4 -6 -2 -5 -13z"/>
<path d="M2010 946 c0 -2 8 -10 18 -17 15 -13 16 -12 3 4 -13 16 -21 21 -21
13z"/>
</g>
</svg>
